nColumns=28
nRows=29
DataType=double
version=3
OpenSimVersion=4.1
endheader
time	ground_force_1_vx	ground_force_1_vy	ground_force_1_vz	ground_force_1_px	ground_force_1_py	ground_force_1_pz	ground_force_1_mx	ground_force_1_my	ground_force_1_mz	ground_force_2_vx	ground_force_2_vy	ground_force_2_vz	ground_force_2_px	ground_force_2_py	ground_force_2_pz	ground_force_2_mx	ground_force_2_my	ground_force_2_mz	ground_force_3_vx	ground_force_3_vy	ground_force_3_vz	ground_force_3_px	ground_force_3_py	ground_force_3_pz	ground_force_3_mx	ground_force_3_my	ground_force_3_mz
1	-128.748	204	-19.1975	-0.126565	0.006	-0.429257	0	0.889033	0	-65.3436	91.9699	7.8058	-0.0803494	0.006	-0.774234	0	-0.440987	0	0	0	0	0.000673604	0	4.74658e-05	0	0	0
1.01	-320.955	529.808	-65.7871	-0.130054	0.006	-0.431603	0	3.64803	0	-261.48	400.589	35.6669	-0.0929484	0.006	-0.776775	0	-1.44111	0	0	0	0	0.000673604	0	4.74658e-05	0	0	0
1.02	-261.733	577.4	-67.9087	-0.137123	0.006	-0.434675	0	5.70402	0	-342.744	643.362	68.9422	-0.0983444	0.006	-0.772171	0	-4.80754	0	0	0	0	0.000673604	0	4.74658e-05	0	0	0
1.03	-166.661	496.843	-45.1069	-0.147173	0.006	-0.437223	0	4.2271	0	-242.262	699.841	54.0095	-0.106061	0.006	-0.763863	0	-5.53692	0	0	0	0	0.000673604	0	4.74658e-05	0	0	0
1.04	-206.675	526.827	-55.0216	-0.156815	0.006	-0.44015	0	0.747819	0	-226.238	780.022	40.6952	-0.121038	0.006	-0.755848	0	-0.407666	0	0	0	0	0.000673604	0	4.74658e-05	0	0	0
1.05	-182.853	668.968	-41.2627	-0.186888	0.006	-0.452365	0	-2.65066	0	-183.128	1024.3	23.2385	-0.162209	0.006	-0.745774	0	4.30611	0	0	0	0	0.000673604	0	4.74658e-05	0	0	0
1.06	-48.8821	963.713	-0.20513	-0.227708	0.006	-0.470276	0	-8.46914	0	-32.688	1351.46	-22.1799	-0.199681	0.006	-0.737621	0	7.69961	0	0	0	0	0.000673604	0	4.74658e-05	0	0	0
1.07	19.3787	1067.73	23.6344	-0.236954	0.006	-0.479077	0	-14.6965	0	-18.6451	1258.9	-25.6285	-0.201494	0.006	-0.736653	0	8.38062	0	0	0	0	0.000673604	0	4.74658e-05	0	0	0
1.08	-104.025	877.228	-9.82444	-0.213042	0.006	-0.477705	0	-13.9841	0	-166.473	950.422	22.964	-0.174412	0.006	-0.742506	0	6.57863	0	0	0	0	0.000673604	0	4.74658e-05	0	0	0
1.09	-202.208	682.727	-45.8163	-0.17967	0.006	-0.472728	0	-9.9144	0	-239.57	747.738	65.994	-0.145828	0.006	-0.750493	0	3.33469	0	0	0	0	0.000673604	0	4.74658e-05	0	0	0
1.1	-214.893	611.048	-46.9267	-0.162967	0.006	-0.472336	0	-8.08857	0	-216.385	692.905	88.3157	-0.138254	0.006	-0.75371	0	0.875994	0	0	0	0	0.000673604	0	4.74658e-05	0	0	0
1.11	-192.901	613.417	-22.53	-0.161132	0.006	-0.476772	0	-9.04906	0	-182.868	727.983	92.8792	-0.142819	0.006	-0.75093	0	0.295141	0	0	0	0	0.000673604	0	4.74658e-05	0	0	0
1.12	-168.059	626.964	2.09246	-0.161297	0.006	-0.481026	0	-10.3176	0	-147.872	808.167	75.5741	-0.151821	0.006	-0.744076	0	1.84598	0	0	0	0	0.000673604	0	4.74658e-05	0	0	0
1.13	-155.861	653.082	10.5668	-0.161129	0.006	-0.482881	0	-10.4164	0	-91.1162	877.363	36.8032	-0.161656	0.006	-0.736006	0	4.46367	0	0	0	0	0.000673604	0	4.74658e-05	0	0	0
1.14	-139.06	686.243	1.69285	-0.161616	0.006	-0.482594	0	-9.22625	0	-42.635	901.114	6.24107	-0.166761	0.006	-0.730175	0	6.14713	0	0	0	0	0.000673604	0	4.74658e-05	0	0	0
1.15	-110.489	717.138	-12.4817	-0.162309	0.006	-0.481396	0	-7.72821	0	-29.4064	886.472	4.14575	-0.163235	0.006	-0.728388	0	5.80499	0	0	0	0	0.000673604	0	4.74658e-05	0	0	0
1.16	-91.0088	745.127	-22.8705	-0.16074	0.006	-0.480022	0	-6.73391	0	-43.1863	856.476	21.336	-0.152339	0.006	-0.729631	0	4.18991	0	0	0	0	0.000673604	0	4.74658e-05	0	0	0
1.17	-90.2074	762.7	-28.0169	-0.155849	0.006	-0.478635	0	-6.52015	0	-68.9345	819.91	37.076	-0.13816	0.006	-0.731009	0	2.90323	0	0	0	0	0.000673604	0	4.74658e-05	0	0	0
1.18	-94.1469	769.826	-30.3124	-0.14977	0.006	-0.477254	0	-6.89677	0	-94.0457	789.865	39.8255	-0.124752	0.006	-0.730806	0	2.63966	0	0	0	0	0.000673604	0	4.74658e-05	0	0	0
1.19	-95.1253	769.049	-32.6515	-0.144131	0.006	-0.475969	0	-7.03061	0	-113.323	776.874	29.6071	-0.114872	0.006	-0.728931	0	3.14326	0	0	0	0	0.000673604	0	4.74658e-05	0	0	0
1.2	-94.3398	761.842	-34.4053	-0.139257	0.006	-0.47506	0	-6.67116	0	-128.399	783.197	14.9289	-0.108741	0.006	-0.726478	0	3.62605	0	0	0	0	0.000673604	0	4.74658e-05	0	0	0
1.21	-93.1299	745.44	-34.8646	-0.135286	0.006	-0.474669	0	-6.05458	0	-135.514	802.269	7.39767	-0.105241	0.006	-0.725052	0	3.4387	0	0	0	0	0.000673604	0	4.74658e-05	0	0	0
1.22	-95.1102	721.828	-36.1951	-0.131705	0.006	-0.474388	0	-5.41726	0	-128.058	830.959	10.0832	-0.103718	0.006	-0.724848	0	2.45468	0	0	0	0	0.000673604	0	4.74658e-05	0	0	0
1.23	-101.016	696.747	-38.0099	-0.128282	0.006	-0.474249	0	-4.97122	0	-113.385	869.179	20.0791	-0.103409	0.006	-0.725508	0	1.05429	0	0	0	0	0.000673604	0	4.74658e-05	0	0	0
1.24	-105.742	674.167	-37.3949	-0.125264	0.006	-0.474504	0	-4.819	0	-99.922	903.808	29.4829	-0.103214	0.006	-0.726202	0	0.008877	0	0	0	0	0.000673604	0	4.74658e-05	0	0	0
1.25	-106.726	658.632	-32.6886	-0.122936	0.006	-0.475157	0	-4.91474	0	-90.4507	922.834	32.7054	-0.102647	0.006	-0.726574	0	-0.375179	0	0	0	0	0.000673604	0	4.74658e-05	0	0	0
1.26	-103.859	652.627	-25.8766	-0.121428	0.006	-0.47613	0	-5.20779	0	-85.9142	927.568	30.7808	-0.101842	0.006	-0.726646	0	-0.410365	0	0	0	0	0.000673604	0	4.74658e-05	0	0	0
1.27	-96.3485	654.063	-19.5368	-0.120875	0.006	-0.477087	0	-5.61662	0	-82.6033	924.668	28.3442	-0.10128	0.006	-0.726763	0	-0.569976	0	0	0	0	0.000673604	0	4.74658e-05	0	0	0
1.28	-85.3423	660.762	-14.8935	-0.121189	0.006	-0.47781	0	-6.05826	0	-76.5958	918.807	29.1917	-0.10132	0.006	-0.727122	0	-1.17549	0	0	0	0	0.000673604	0	4.74658e-05	0	0	0
